<svg width="65" height="65" viewBox="0 0 65 65" fill="none" xmlns="http://www.w3.org/2000/svg">
<path d="M47.4137 6.09376C44.3058 6.09032 41.2596 6.9606 38.6226 8.60528C35.9856 10.25 33.864 12.6028 32.5 15.3954C31.136 12.6028 29.0144 10.25 26.3774 8.60528C23.7404 6.9606 20.6942 6.09032 17.5863 6.09376C8.43451 6.09376 1.01562 13.4824 1.01562 22.5977C1.01562 44.0527 32.5 58.9063 32.5 58.9063C32.5 58.9063 63.9844 44.0527 63.9844 22.5977C63.9844 13.4824 56.5655 6.09376 47.4137 6.09376Z" fill="#2A75E6"/>
<path d="M3.24023 32.5C10.418 48.4885 32.5 58.9062 32.5 58.9062C32.5 58.9062 54.582 48.4885 61.7598 32.5H3.24023Z" fill="#F9D549"/>
</svg>
