<svg width="30" height="30" viewBox="0 0 30 30" fill="none" xmlns="http://www.w3.org/2000/svg">
<path d="M15.0003 3C12.8785 3 10.8436 3.8494 9.34324 5.36134C7.84289 6.87328 7 8.9239 7 11.0621C7 17.3716 13.1079 24.9642 14.7084 26.8294C14.7943 26.9286 14.9157 26.9895 15.0461 26.9988C15.1765 27.008 15.3051 26.9648 15.404 26.8786L15.4528 26.8294C17.032 24.9568 23 17.3716 23 11.0615C22.9998 8.9235 22.157 6.87313 20.6568 5.36134C19.1566 3.84955 17.1219 3.00016 15.0003 3ZM15.0003 13.2498C14.4637 13.2498 13.9391 13.0894 13.4929 12.789C13.0468 12.4886 12.699 12.0616 12.4937 11.562C12.2883 11.0624 12.2346 10.5126 12.3393 9.98225C12.4439 9.45188 12.7024 8.9647 13.0818 8.58232C13.4612 8.19995 13.9447 7.93955 14.471 7.83405C14.9973 7.72855 15.5428 7.78269 16.0386 7.98964C16.5344 8.19658 16.9581 8.54702 17.2562 8.99664C17.5544 9.44627 17.7135 9.97489 17.7135 10.5156V10.5224C17.7117 11.2464 17.4251 11.9401 16.9164 12.4514C16.4078 12.9627 15.7187 13.2498 15.0003 13.2498Z" fill="#F9BB4B"/>
</svg>
