<svg width="113" height="119" viewBox="0 0 113 119" fill="none" xmlns="http://www.w3.org/2000/svg">
<path d="M47.8534 5.21573C52.2994 -0.468397 60.9529 -0.468395 65.3989 5.21574V5.21574C68.2748 8.89247 73.1705 10.3749 77.5952 8.88798V8.88798C84.2334 6.65722 91.2403 11.1077 92.0429 18.0646L92.1759 19.2174C92.7174 23.9109 96.0272 27.8189 100.568 29.1257V29.1257C107.432 31.1016 110.942 38.7119 107.989 45.2163L107.617 46.0345C105.628 50.4157 106.349 55.552 109.467 59.2162L109.678 59.4632C114.418 65.0325 113.189 73.4986 107.061 77.4907V77.4907C103.062 80.0959 100.962 84.8039 101.696 89.52L101.884 90.7257C102.964 97.6711 97.5038 103.905 90.4766 103.749V103.749C85.7926 103.645 81.531 106.445 79.7667 110.785L79.4909 111.463C76.8276 118.015 68.7435 120.359 62.9882 116.249V116.249C59.1824 113.531 54.07 113.531 50.2641 116.249V116.249C44.5089 120.359 36.4248 118.015 33.7614 111.463L33.4857 110.785C31.7213 106.445 27.4598 103.645 22.7758 103.749V103.749C15.7486 103.905 10.2884 97.6711 11.3688 90.7257L11.5564 89.52C12.29 84.804 10.1901 80.0959 6.19111 77.4907V77.4907C0.0632858 73.4986 -1.16538 65.0325 3.57484 59.4632L3.78505 59.2162C6.9038 55.552 7.62471 50.4157 5.63518 46.0345L5.26363 45.2163C2.30999 38.7119 5.81996 31.1016 12.6848 29.1257V29.1257C17.2252 27.8189 20.535 23.9109 21.0765 19.2174L21.2095 18.0646C22.0121 11.1077 29.019 6.65722 35.6572 8.88798V8.88798C40.0819 10.3749 44.9776 8.89247 47.8534 5.21573V5.21573Z" fill="#F9BB4B"/>
</svg>
