<svg width="30" height="30" viewBox="0 0 30 30" fill="none" xmlns="http://www.w3.org/2000/svg">
<path d="M13.5 0C9.91958 0 6.4858 1.42232 3.95406 3.95406C1.42232 6.4858 0 9.91958 0 13.5C0 17.0804 1.42232 20.5142 3.95406 23.0459C6.4858 25.5777 9.91958 27 13.5 27C17.0804 27 20.5142 25.5777 23.0459 23.0459C25.5777 20.5142 27 17.0804 27 13.5C27 9.91958 25.5777 6.4858 23.0459 3.95406C20.5142 1.42232 17.0804 0 13.5 0V0ZM24.75 9.72C24.5468 10.3852 24.2089 11.0015 23.7573 11.5305C23.3057 12.0595 22.7501 12.4899 22.125 12.795C21.792 11.5448 21.1766 10.3875 20.3263 9.41239C19.476 8.43723 18.4133 7.6701 17.22 7.17C17.4142 6.50444 17.8329 5.9267 18.405 5.535C17.76 5.115 16.905 4.905 16.395 5.64C15.6 6.675 16.395 8.055 16.71 8.64V8.85C15.8772 8.34484 15.2259 7.5886 14.85 6.69C13.4006 6.64345 11.967 7.00187 10.71 7.725C10.5795 6.8781 10.662 6.01204 10.95 5.205C11.4917 5.2567 12.0377 5.17428 12.54 4.965C13.0423 4.75572 13.4853 4.42602 13.83 4.005C14.52 3.225 13.635 2.235 12.945 1.635H13.485C15.5271 1.62123 17.5377 2.1381 19.32 3.135C20.3274 3.87952 21.1558 4.83956 21.7449 5.94505C22.334 7.05055 22.6688 8.27361 22.725 9.525C23.085 9.525 23.775 8.7 24.09 8.145C24.348 8.6535 24.5685 9.18 24.75 9.72ZM13.5 25.26C10.425 22.14 13.875 19.635 12 17.4C10.62 16.125 8.565 17.01 7.335 15.555C7.12737 14.4703 7.21713 13.3496 7.59476 12.3118C7.9724 11.2739 8.62383 10.3576 9.48 9.66C10.26 9 15.48 8.16 17.61 9.99C18.8558 11.063 19.7322 12.501 20.115 14.1C20.8034 14.152 21.4918 14.0007 22.095 13.665C22.71 18.135 17.37 23.775 13.5 25.26ZM7.725 3.135C8.29827 2.91643 8.92803 2.89511 9.51477 3.07439C10.1015 3.25367 10.6118 3.62334 10.965 4.125C10.335 4.695 9.555 5.07 8.715 5.205C8.74602 4.76332 8.84205 4.32864 9 3.915L7.725 3.135Z" fill="#424D9C"/>
</svg>
