<svg width="30" height="30" viewBox="0 0 30 30" fill="none" xmlns="http://www.w3.org/2000/svg">
<path d="M17.9336 19.3257C19.1408 19.3257 20.1206 20.3269 20.1206 21.5607L20.1193 22.7893C20.2655 25.5862 18.231 27 14.5807 27C10.9441 27 8.87332 25.6079 8.87332 22.8378V21.5607C8.87332 20.3269 9.85308 19.3257 11.0603 19.3257H17.9336ZM4.18696 12.94H9.65562C9.43757 13.8071 9.44596 14.7176 9.67995 15.5804C9.91393 16.4432 10.3653 17.2282 10.989 17.857L11.1915 18.0498L11.0603 18.0485C10.3103 18.0483 9.58072 18.2987 8.98301 18.7618C8.38529 19.2248 7.95221 19.875 7.74984 20.613L7.70735 20.6143C4.07074 20.6143 2 19.2222 2 16.4521V15.175C2 13.9413 2.97976 12.94 4.18696 12.94ZM24.8069 12.94C26.0141 12.94 26.9939 13.9413 26.9939 15.175L26.9926 16.4036C27.1388 19.2005 25.1043 20.6143 21.454 20.6143L21.2428 20.6117C21.0507 19.9161 20.6536 19.2978 20.1056 18.8408C19.5576 18.3838 18.8852 18.1103 18.1798 18.0575L17.9336 18.0485L17.8024 18.0498C18.4961 17.4271 19.007 16.6198 19.2782 15.7178C19.5494 14.8158 19.5702 13.8546 19.3383 12.9413L24.8069 12.94ZM14.4969 10.3857C14.9893 10.3857 15.4768 10.4848 15.9316 10.6773C16.3865 10.8699 16.7998 11.1521 17.1479 11.5079C17.4961 11.8637 17.7722 12.286 17.9606 12.7509C18.149 13.2157 18.246 13.714 18.246 14.2171C18.246 14.7203 18.149 15.2185 17.9606 15.6833C17.7722 16.1482 17.4961 16.5706 17.1479 16.9263C16.7998 17.2821 16.3865 17.5643 15.9316 17.7569C15.4768 17.9494 14.9893 18.0485 14.4969 18.0485C13.5026 18.0485 12.549 17.6449 11.8459 16.9263C11.1428 16.2078 10.7479 15.2333 10.7479 14.2171C10.7479 13.201 11.1428 12.2264 11.8459 11.5079C12.549 10.7894 13.5026 10.3857 14.4969 10.3857ZM7.62362 4C8.61794 4 9.57153 4.40367 10.2746 5.1222C10.9777 5.84073 11.3727 6.81526 11.3727 7.83142C11.3727 8.84757 10.9777 9.82211 10.2746 10.5406C9.57153 11.2592 8.61794 11.6628 7.62362 11.6628C6.6293 11.6628 5.67571 11.2592 4.97262 10.5406C4.26953 9.82211 3.87454 8.84757 3.87454 7.83142C3.87454 6.81526 4.26953 5.84073 4.97262 5.1222C5.67571 4.40367 6.6293 4 7.62362 4ZM21.3703 4C22.3646 4 23.3182 4.40367 24.0213 5.1222C24.7243 5.84073 25.1193 6.81526 25.1193 7.83142C25.1193 8.84757 24.7243 9.82211 24.0213 10.5406C23.3182 11.2592 22.3646 11.6628 21.3703 11.6628C20.3759 11.6628 19.4223 11.2592 18.7193 10.5406C18.0162 9.82211 17.6212 8.84757 17.6212 7.83142C17.6212 6.81526 18.0162 5.84073 18.7193 5.1222C19.4223 4.40367 20.3759 4 21.3703 4Z" fill="#424D9C"/>
</svg>
